# xmcd
#
# Track frame offsets: 
#        150
#        14066
#        25230
#        41467
#        62576
#        84521
#        100836
#        127154
#        145704
#        159948
#        172764
#        190998
#
# Disc length: 2864 seconds
#
# Revision: 3
# Processed by: cddbd v1.5.2PL0 Copyright (c) Steve Scherf et al.
# Submitted via: ExactAudioCopyFreeDBPlugin 1.0
#
DISCID=950b2e0c
DTITLE=Steve Hill - Call It What You Will
DYEAR=1999
DGENRE=Blues
TTITLE0=Sizzlin'
TTITLE1=Top Party
TTITLE2=You Can Trust Me Now
TTITLE3=Patient Man
TTITLE4=Overqualified
TTITLE5=Darkest Hour
TTITLE6=Slave
TTITLE7=Wanna Holler
TTITLE8=Whooo!
TTITLE9=What A Life
TTITLE10=Gee Baby, Ain't I Good To You
TTITLE11=Wait On Time (Live Bonus Track)
EXTD=YEAR: 1999 ID3G:   0
EXTT0=
EXTT1=
EXTT2=
EXTT3=
EXTT4=
EXTT5=
EXTT6=
EXTT7=
EXTT8=
EXTT9=
EXTT10=
EXTT11=
PLAYORDER=
